<svg width="33" height="33" viewBox="0 0 33 33" fill="none" xmlns="http://www.w3.org/2000/svg">
<g clip-path="url(#clip0)">
<path fill-rule="evenodd" clip-rule="evenodd" d="M16.5 33C25.6127 33 33 25.6127 33 16.5C33 7.3873 25.6127 0 16.5 0C7.3873 0 0 7.3873 0 16.5C0 25.6127 7.3873 33 16.5 33Z" fill="#444A34"/>
<path d="M21.6328 8.69196C21.3616 8.65179 20.4275 8.57143 19.3426 8.57143C17.0725 8.57143 15.5156 9.95759 15.5156 12.4989V14.6886H12.9542V17.6618H15.5156V25.2857H18.5893V17.6618H21.1406L21.5324 14.6886H18.5893V12.7902C18.5893 11.9364 18.8203 11.3437 20.0558 11.3437H21.6328V8.69196ZM70.0555 12.6696C69.4729 12.9208 68.8401 13.1016 68.1872 13.1719C68.8602 12.7701 69.3725 12.1373 69.6136 11.3839C68.9908 11.7556 68.2877 12.0268 67.5544 12.1674C66.9618 11.5346 66.118 11.1429 65.1839 11.1429C63.3859 11.1429 61.9395 12.5993 61.9395 14.3873C61.9395 14.6384 61.9696 14.8895 62.0198 15.1306C59.3278 14.99 56.9272 13.7042 55.3301 11.7355C55.0488 12.2176 54.8881 12.7701 54.8881 13.3728C54.8881 14.4978 55.4607 15.4922 56.3345 16.0748C55.8022 16.0547 55.2999 15.904 54.868 15.6629C54.868 15.673 54.868 15.6931 54.868 15.7031C54.868 17.2801 55.983 18.5859 57.4696 18.8873C57.1984 18.9576 56.9071 18.9978 56.6158 18.9978C56.4049 18.9978 56.204 18.9777 56.0031 18.9475C56.4149 20.2333 57.6102 21.1674 59.0366 21.1975C57.9216 22.0714 56.5254 22.5837 55.0086 22.5837C54.7374 22.5837 54.4863 22.5737 54.2252 22.5435C55.6616 23.4676 57.3691 24 59.2073 24C65.1738 24 68.4383 19.058 68.4383 14.769C68.4383 14.6283 68.4383 14.4877 68.4283 14.3471C69.0611 13.885 69.6136 13.3125 70.0555 12.6696ZM151.156 14.8493H147.841V24.8036H151.156V14.8493ZM151.367 11.7757C151.357 10.8013 150.654 10.058 149.519 10.058C148.394 10.058 147.65 10.8013 147.65 11.7757C147.65 12.7299 148.364 13.4933 149.479 13.4933H149.499C150.654 13.4933 151.377 12.7299 151.367 11.7757ZM163.079 19.0982C163.079 16.0446 161.452 14.6183 159.272 14.6183C157.484 14.6183 156.701 15.6127 156.269 16.2958H156.289V14.8493H152.984C152.984 14.8493 153.024 15.7835 152.984 24.8036H156.289V19.2489C156.289 18.9475 156.319 18.6562 156.399 18.4353C156.64 17.8426 157.183 17.2299 158.097 17.2299C159.292 17.2299 159.774 18.144 159.774 19.4799V24.8036H163.079V19.0982Z" fill="#5E6648"/>
<path d="M111.934 17.7422C111.934 17.26 111.884 16.8884 111.814 16.5167H104.863V19.048H109.041C108.871 20.1228 107.776 22.2221 104.863 22.2221C102.352 22.2221 100.302 20.1429 100.302 17.5714C100.302 15 102.352 12.9208 104.863 12.9208C106.299 12.9208 107.253 13.5335 107.796 14.0558L109.795 12.1373C108.509 10.9319 106.852 10.2087 104.863 10.2087C100.795 10.2087 97.5 13.5033 97.5 17.5714C97.5 21.6395 100.795 24.9342 104.863 24.9342C109.112 24.9342 111.934 21.9509 111.934 17.7422ZM120.643 16.5167H118.544V14.4174H116.434V16.5167H114.335V18.6261H116.434V20.7254H118.544V18.6261H120.643V16.5167Z" fill="white"/>
</g>
<defs>
<clipPath id="clip0">
<rect width="171" height="34" fill="white"/>
</clipPath>
</defs>
</svg>
