<svg width="33" height="33" viewBox="0 0 33 33" fill="none" xmlns="http://www.w3.org/2000/svg">
<g clip-path="url(#clip0)">
<path fill-rule="evenodd" clip-rule="evenodd" d="M16.5 33C25.6127 33 33 25.6127 33 16.5C33 7.3873 25.6127 0 16.5 0C7.3873 0 0 7.3873 0 16.5C0 25.6127 7.3873 33 16.5 33Z" fill="#FFD723"/>
<path d="M-69.3672 7.69196C-69.6384 7.65179 -70.5725 7.57143 -71.6574 7.57143C-73.9275 7.57143 -75.4844 8.95759 -75.4844 11.4989V13.6886H-78.0458V16.6618H-75.4844V24.2857H-72.4107V16.6618H-69.8594L-69.4676 13.6886H-72.4107V11.7902C-72.4107 10.9364 -72.1797 10.3437 -70.9442 10.3437H-69.3672V7.69196ZM-20.9445 11.6696C-21.5271 11.9208 -22.1599 12.1016 -22.8128 12.1719C-22.1398 11.7701 -21.6275 11.1373 -21.3864 10.3839C-22.0092 10.7556 -22.7123 11.0268 -23.4456 11.1674C-24.0382 10.5346 -24.882 10.1429 -25.8161 10.1429C-27.6141 10.1429 -29.0605 11.5993 -29.0605 13.3873C-29.0605 13.6384 -29.0304 13.8895 -28.9802 14.1306C-31.6722 13.99 -34.0728 12.7042 -35.6699 10.7355C-35.9512 11.2176 -36.1119 11.7701 -36.1119 12.3728C-36.1119 13.4978 -35.5393 14.4922 -34.6655 15.0748C-35.1978 15.0547 -35.7001 14.904 -36.132 14.6629C-36.132 14.673 -36.132 14.6931 -36.132 14.7031C-36.132 16.2801 -35.017 17.5859 -33.5304 17.8873C-33.8016 17.9576 -34.0929 17.9978 -34.3842 17.9978C-34.5951 17.9978 -34.796 17.9777 -34.9969 17.9475C-34.5851 19.2333 -33.3898 20.1674 -31.9634 20.1975C-33.0784 21.0714 -34.4746 21.5837 -35.9914 21.5837C-36.2626 21.5837 -36.5137 21.5737 -36.7748 21.5435C-35.3384 22.4676 -33.6309 23 -31.7927 23C-25.8262 23 -22.5617 18.058 -22.5617 13.769C-22.5617 13.6283 -22.5617 13.4877 -22.5717 13.3471C-21.9389 12.885 -21.3864 12.3125 -20.9445 11.6696ZM60.156 13.8493H56.8412V23.8036H60.156V13.8493ZM60.3669 10.7757C60.3569 9.80134 59.6537 9.05804 58.5187 9.05804C57.3937 9.05804 56.6504 9.80134 56.6504 10.7757C56.6504 11.7299 57.3636 12.4933 58.4785 12.4933H58.4986C59.6537 12.4933 60.377 11.7299 60.3669 10.7757ZM72.079 18.0982C72.079 15.0446 70.4517 13.6183 68.272 13.6183C66.4841 13.6183 65.7006 14.6127 65.2687 15.2958H65.2888V13.8493H61.9841C61.9841 13.8493 62.0243 14.7835 61.9841 23.8036H65.2888V18.2489C65.2888 17.9475 65.3189 17.6562 65.3993 17.4353C65.6403 16.8426 66.1828 16.2299 67.0968 16.2299C68.2921 16.2299 68.7743 17.144 68.7743 18.4799V23.8036H72.079V18.0982Z" fill="#5E6648"/>
<path d="M20.9342 16.7422C20.9342 16.26 20.8839 15.8884 20.8136 15.5167H13.8627V18.048H18.0413C17.8705 19.1228 16.7757 21.2221 13.8627 21.2221C11.3516 21.2221 9.30246 19.1429 9.30246 16.5714C9.30246 14 11.3516 11.9208 13.8627 11.9208C15.2991 11.9208 16.2533 12.5335 16.7958 13.0558L18.7946 11.1373C17.5089 9.93192 15.8516 9.2087 13.8627 9.2087C9.79464 9.2087 6.5 12.5033 6.5 16.5714C6.5 20.6395 9.79464 23.9342 13.8627 23.9342C18.1116 23.9342 20.9342 20.9509 20.9342 16.7422ZM29.6429 15.5167H27.5435V13.4174H25.4342V15.5167H23.3348V17.6261H25.4342V19.7254H27.5435V17.6261H29.6429V15.5167Z" fill="white"/>
</g>
<defs>
<clipPath id="clip0">
<rect width="171" height="34" fill="white" transform="translate(-91 -1)"/>
</clipPath>
</defs>
</svg>
