<svg width="33" height="33" viewBox="0 0 33 33" fill="none" xmlns="http://www.w3.org/2000/svg">
<g clip-path="url(#clip0)">
<path fill-rule="evenodd" clip-rule="evenodd" d="M16.5 33C25.6127 33 33 25.6127 33 16.5C33 7.3873 25.6127 0 16.5 0C7.3873 0 0 7.3873 0 16.5C0 25.6127 7.3873 33 16.5 33Z" fill="#444A34"/>
<path d="M-116.367 7.69196C-116.638 7.65179 -117.573 7.57143 -118.657 7.57143C-120.927 7.57143 -122.484 8.95759 -122.484 11.4989V13.6886H-125.046V16.6618H-122.484V24.2857H-119.411V16.6618H-116.859L-116.468 13.6886H-119.411V11.7902C-119.411 10.9364 -119.18 10.3437 -117.944 10.3437H-116.367V7.69196ZM-67.9445 11.6696C-68.5271 11.9208 -69.1599 12.1016 -69.8128 12.1719C-69.1398 11.7701 -68.6275 11.1373 -68.3864 10.3839C-69.0092 10.7556 -69.7123 11.0268 -70.4456 11.1674C-71.0382 10.5346 -71.882 10.1429 -72.8161 10.1429C-74.6141 10.1429 -76.0605 11.5993 -76.0605 13.3873C-76.0605 13.6384 -76.0304 13.8895 -75.9802 14.1306C-78.6722 13.99 -81.0728 12.7042 -82.6699 10.7355C-82.9512 11.2176 -83.1119 11.7701 -83.1119 12.3728C-83.1119 13.4978 -82.5393 14.4922 -81.6655 15.0748C-82.1978 15.0547 -82.7001 14.904 -83.132 14.6629C-83.132 14.673 -83.132 14.6931 -83.132 14.7031C-83.132 16.2801 -82.017 17.5859 -80.5304 17.8873C-80.8016 17.9576 -81.0929 17.9978 -81.3842 17.9978C-81.5951 17.9978 -81.796 17.9777 -81.9969 17.9475C-81.5851 19.2333 -80.3898 20.1674 -78.9634 20.1975C-80.0784 21.0714 -81.4746 21.5837 -82.9914 21.5837C-83.2626 21.5837 -83.5137 21.5737 -83.7748 21.5435C-82.3384 22.4676 -80.6309 23 -78.7927 23C-72.8262 23 -69.5617 18.058 -69.5617 13.769C-69.5617 13.6283 -69.5617 13.4877 -69.5717 13.3471C-68.9389 12.885 -68.3864 12.3125 -67.9445 11.6696ZM13.156 13.8493H9.84124V23.8036H13.156V13.8493ZM13.3669 10.7757C13.3569 9.80134 12.6537 9.05804 11.5187 9.05804C10.3937 9.05804 9.65039 9.80134 9.65039 10.7757C9.65039 11.7299 10.3636 12.4933 11.4785 12.4933H11.4986C12.6537 12.4933 13.377 11.7299 13.3669 10.7757ZM25.079 18.0982C25.079 15.0446 23.4517 13.6183 21.272 13.6183C19.4841 13.6183 18.7006 14.6127 18.2687 15.2958H18.2888V13.8493H14.9841C14.9841 13.8493 15.0243 14.7835 14.9841 23.8036H18.2888V18.2489C18.2888 17.9475 18.3189 17.6562 18.3993 17.4353C18.6403 16.8426 19.1828 16.2299 20.0968 16.2299C21.2921 16.2299 21.7743 17.144 21.7743 18.4799V23.8036H25.079V18.0982Z" fill="#5E6648"/>
<path d="M-26.0658 16.7422C-26.0658 16.26 -26.1161 15.8884 -26.1864 15.5167H-33.1373V18.048H-28.9587C-29.1295 19.1228 -30.2243 21.2221 -33.1373 21.2221C-35.6484 21.2221 -37.6975 19.1429 -37.6975 16.5714C-37.6975 14 -35.6484 11.9208 -33.1373 11.9208C-31.7009 11.9208 -30.7467 12.5335 -30.2042 13.0558L-28.2054 11.1373C-29.4911 9.93192 -31.1484 9.2087 -33.1373 9.2087C-37.2054 9.2087 -40.5 12.5033 -40.5 16.5714C-40.5 20.6395 -37.2054 23.9342 -33.1373 23.9342C-28.8884 23.9342 -26.0658 20.9509 -26.0658 16.7422ZM-17.3571 15.5167H-19.4565V13.4174H-21.5658V15.5167H-23.6652V17.6261H-21.5658V19.7254H-19.4565V17.6261H-17.3571V15.5167Z" fill="white"/>
</g>
<defs>
<clipPath id="clip0">
<rect width="171" height="34" fill="white" transform="translate(-138 -1)"/>
</clipPath>
</defs>
</svg>
