<svg width="33" height="33" viewBox="0 0 33 33" fill="none" xmlns="http://www.w3.org/2000/svg">
<g clip-path="url(#clip0)">
<path fill-rule="evenodd" clip-rule="evenodd" d="M16.5 33C25.6127 33 33 25.6127 33 16.5C33 7.3873 25.6127 0 16.5 0C7.3873 0 0 7.3873 0 16.5C0 25.6127 7.3873 33 16.5 33Z" fill="#444A34"/>
<path d="M-22.3672 8.69196C-22.6384 8.65179 -23.5725 8.57143 -24.6574 8.57143C-26.9275 8.57143 -28.4844 9.95759 -28.4844 12.4989V14.6886H-31.0458V17.6618H-28.4844V25.2857H-25.4107V17.6618H-22.8594L-22.4676 14.6886H-25.4107V12.7902C-25.4107 11.9364 -25.1797 11.3437 -23.9442 11.3437H-22.3672V8.69196ZM26.0555 12.6696C25.4729 12.9208 24.8401 13.1016 24.1872 13.1719C24.8602 12.7701 25.3725 12.1373 25.6136 11.3839C24.9908 11.7556 24.2877 12.0268 23.5544 12.1674C22.9618 11.5346 22.118 11.1429 21.1839 11.1429C19.3859 11.1429 17.9395 12.5993 17.9395 14.3873C17.9395 14.6384 17.9696 14.8895 18.0198 15.1306C15.3278 14.99 12.9272 13.7042 11.3301 11.7355C11.0488 12.2176 10.8881 12.7701 10.8881 13.3728C10.8881 14.4978 11.4607 15.4922 12.3345 16.0748C11.8022 16.0547 11.2999 15.904 10.868 15.6629C10.868 15.673 10.868 15.6931 10.868 15.7031C10.868 17.2801 11.983 18.5859 13.4696 18.8873C13.1984 18.9576 12.9071 18.9978 12.6158 18.9978C12.4049 18.9978 12.204 18.9777 12.0031 18.9475C12.4149 20.2333 13.6102 21.1674 15.0366 21.1975C13.9216 22.0714 12.5254 22.5837 11.0086 22.5837C10.7374 22.5837 10.4863 22.5737 10.2252 22.5435C11.6616 23.4676 13.3691 24 15.2073 24C21.1738 24 24.4383 19.058 24.4383 14.769C24.4383 14.6283 24.4383 14.4877 24.4283 14.3471C25.0611 13.885 25.6136 13.3125 26.0555 12.6696ZM107.156 14.8493H103.841V24.8036H107.156V14.8493ZM107.367 11.7757C107.357 10.8013 106.654 10.058 105.519 10.058C104.394 10.058 103.65 10.8013 103.65 11.7757C103.65 12.7299 104.364 13.4933 105.479 13.4933H105.499C106.654 13.4933 107.377 12.7299 107.367 11.7757ZM119.079 19.0982C119.079 16.0446 117.452 14.6183 115.272 14.6183C113.484 14.6183 112.701 15.6127 112.269 16.2958H112.289V14.8493H108.984C108.984 14.8493 109.024 15.7835 108.984 24.8036H112.289V19.2489C112.289 18.9475 112.319 18.6562 112.399 18.4353C112.64 17.8426 113.183 17.2299 114.097 17.2299C115.292 17.2299 115.774 18.144 115.774 19.4799V24.8036H119.079V19.0982Z" fill="#5E6648"/>
<path d="M67.9342 17.7422C67.9342 17.26 67.8839 16.8884 67.8136 16.5167H60.8627V19.048H65.0413C64.8705 20.1228 63.7757 22.2221 60.8627 22.2221C58.3516 22.2221 56.3025 20.1429 56.3025 17.5714C56.3025 15 58.3516 12.9208 60.8627 12.9208C62.2991 12.9208 63.2533 13.5335 63.7958 14.0558L65.7946 12.1373C64.5089 10.9319 62.8516 10.2087 60.8627 10.2087C56.7946 10.2087 53.5 13.5033 53.5 17.5714C53.5 21.6395 56.7946 24.9342 60.8627 24.9342C65.1116 24.9342 67.9342 21.9509 67.9342 17.7422ZM76.6429 16.5167H74.5435V14.4174H72.4342V16.5167H70.3348V18.6261H72.4342V20.7254H74.5435V18.6261H76.6429V16.5167Z" fill="white"/>
</g>
<defs>
<clipPath id="clip0">
<rect width="171" height="34" fill="white" transform="translate(-44)"/>
</clipPath>
</defs>
</svg>
